<?xml version="1.0" encoding="UTF-8" standalone="no"?>
<!DOCTYPE svg PUBLIC "-//W3C//DTD SVG 1.1//EN"
 "http://www.w3.org/Graphics/SVG/1.1/DTD/svg11.dtd">
<!-- Generated by graphviz version 2.28.0 (20121118.1836)
 -->
<!-- Title: models_diagram Pages: 1 -->
<svg width="2593pt" height="410pt"
 viewBox="0.00 0.00 2593.00 410.00" xmlns="http://www.w3.org/2000/svg" xmlns:xlink="http://www.w3.org/1999/xlink">
<g id="graph1" class="graph" transform="scale(1 1) rotate(0) translate(4 406)">
<title>models_diagram</title>
<polygon fill="white" stroke="white" points="-4,5 -4,-406 2590,-406 2590,5 -4,5"/>
<!-- _diagram_info -->
<g id="node1" class="node"><title>_diagram_info</title>
<text text-anchor="start" x="533" y="-387.6" font-family="Times,serif" font-size="13.00">Models diagram</text>
<text text-anchor="start" x="533" y="-373.6" font-family="Times,serif" font-size="13.00">Date: Nov 19 2012 &#45; 13:09</text>
<text text-anchor="start" x="533" y="-359.6" font-family="Times,serif" font-size="13.00">Migration version: 104</text>
<text text-anchor="start" x="533" y="-345.6" font-family="Times,serif" font-size="13.00">Generated by RailRoady 1.1.0</text>
<text text-anchor="start" x="533" y="-331.6" font-family="Times,serif" font-size="13.00">http://railroady.prestonlee.com</text>
</g>
<!-- Article::States -->
<g id="node2" class="node"><title>Article::States</title>
<polygon fill="none" stroke="black" stroke-dasharray="1,5" points="815,-381 719,-381 719,-345 815,-345 815,-381"/>
<text text-anchor="middle" x="767" y="-359.3" font-family="Times,serif" font-size="14.00">Article::States</text>
</g>
<!-- Article -->
<g id="node3" class="node"><title>Article</title>
<ellipse fill="none" stroke="black" cx="606" cy="-180" rx="36.096" ry="18"/>
<text text-anchor="middle" x="606" y="-176.3" font-family="Times,serif" font-size="14.00">Article</text>
</g>
<!-- Categorization -->
<g id="node6" class="node"><title>Categorization</title>
<ellipse fill="none" stroke="black" cx="143" cy="-18" rx="65.4659" ry="18"/>
<text text-anchor="middle" x="143" y="-14.3" font-family="Times,serif" font-size="14.00">Categorization</text>
</g>
<!-- Article&#45;&gt;Categorization -->
<g id="edge12" class="edge"><title>Article&#45;&gt;Categorization</title>
<path fill="none" stroke="#e57d6e" d="M561.407,-178.151C480.694,-176.013 313.927,-168.662 262,-144 216.132,-122.216 178.843,-74.495 158.875,-44.7233"/>
<ellipse fill="none" stroke="#e57d6e" cx="565.879" cy="-178.264" rx="4" ry="4"/>
<polygon fill="#e57d6e" stroke="#e57d6e" points="158.716,-44.4791 157.011,-33.6465 155.98,-40.2939 153.244,-36.1087 153.244,-36.1087 153.244,-36.1087 155.98,-40.2939 149.478,-38.5709 158.716,-44.4791 158.716,-44.4791"/>
</g>
<!-- Category -->
<g id="node7" class="node"><title>Category</title>
<ellipse fill="none" stroke="black" cx="45" cy="-92" rx="45.244" ry="18"/>
<text text-anchor="middle" x="45" y="-88.3" font-family="Times,serif" font-size="14.00">Category</text>
</g>
<!-- Article&#45;&gt;Category -->
<g id="edge14" class="edge"><title>Article&#45;&gt;Category</title>
<path fill="none" stroke="#c2a1fa" d="M559.217,-179.904C478.588,-180.436 308.746,-177.035 170,-144 138.8,-136.571 105.241,-122.513 80.758,-111.035"/>
<polygon fill="#c2a1fa" stroke="#c2a1fa" points="559.527,-179.902 569.567,-184.311 564.527,-179.856 569.526,-179.811 569.526,-179.811 569.526,-179.811 564.527,-179.856 569.486,-175.311 559.527,-179.902 559.527,-179.902"/>
<polygon fill="#c2a1fa" stroke="#c2a1fa" points="80.5391,-110.931 73.4537,-102.561 76.0269,-108.776 71.5148,-106.622 71.5148,-106.622 71.5148,-106.622 76.0269,-108.776 69.576,-110.683 80.5391,-110.931 80.5391,-110.931"/>
</g>
<!-- Comment -->
<g id="node8" class="node"><title>Comment</title>
<ellipse fill="none" stroke="black" cx="637" cy="-18" rx="48.1437" ry="18"/>
<text text-anchor="middle" x="637" y="-14.3" font-family="Times,serif" font-size="14.00">Comment</text>
</g>
<!-- Article&#45;&gt;Comment -->
<g id="edge16" class="edge"><title>Article&#45;&gt;Comment</title>
<path fill="none" stroke="#512f6c" d="M610.91,-153.658C616.589,-124.346 625.903,-76.2762 631.73,-46.1987"/>
<ellipse fill="none" stroke="#512f6c" cx="610.078" cy="-157.95" rx="4.00001" ry="4.00001"/>
<polygon fill="#512f6c" stroke="#512f6c" points="631.804,-45.8171 638.124,-36.8557 632.755,-40.9084 633.706,-35.9997 633.706,-35.9997 633.706,-35.9997 632.755,-40.9084 629.288,-35.1437 631.804,-45.8171 631.804,-45.8171"/>
</g>
<!-- Article&#45;&gt;Comment -->
<g id="edge18" class="edge"><title>Article&#45;&gt;Comment</title>
<path fill="none" stroke="#a1344d" d="M561.56,-177.46C473.004,-173.358 279.549,-158.883 239,-110 228.785,-97.6853 228.489,-86.0632 239,-74 282.317,-24.2858 478.723,-18.0037 578.477,-18.1175"/>
<ellipse fill="none" stroke="#a1344d" cx="565.797" cy="-177.648" rx="4" ry="4"/>
<polygon fill="#a1344d" stroke="#a1344d" points="578.693,-18.1182 588.678,-22.652 583.693,-18.1351 588.693,-18.152 588.693,-18.152 588.693,-18.152 583.693,-18.1351 588.709,-13.652 578.693,-18.1182 578.693,-18.1182"/>
<text text-anchor="middle" x="300.5" y="-88.3" font-family="Times,serif" font-size="14.00">published_comments</text>
</g>
<!-- Feedback -->
<g id="node13" class="node"><title>Feedback</title>
<ellipse fill="none" stroke="black" cx="711" cy="-92" rx="46.2191" ry="18"/>
<text text-anchor="middle" x="711" y="-88.3" font-family="Times,serif" font-size="14.00">Feedback</text>
</g>
<!-- Article&#45;&gt;Feedback -->
<g id="edge22" class="edge"><title>Article&#45;&gt;Feedback</title>
<path fill="none" stroke="#5c9326" d="M616.35,-154.877C621.254,-145.576 627.843,-135.416 636,-128 644.881,-119.926 655.951,-113.395 666.837,-108.259"/>
<ellipse fill="none" stroke="#5c9326" cx="614.557" cy="-158.498" rx="4.00002" ry="4.00002"/>
<polygon fill="#5c9326" stroke="#5c9326" points="667.141,-108.125 678.106,-108.221 671.718,-106.113 676.296,-104.101 676.296,-104.101 676.296,-104.101 671.718,-106.113 674.485,-99.9814 667.141,-108.125 667.141,-108.125"/>
<text text-anchor="middle" x="693.5" y="-132.3" font-family="Times,serif" font-size="14.00">published_feedback</text>
</g>
<!-- Article&#45;&gt;Feedback -->
<g id="edge8" class="edge"><title>Article&#45;&gt;Feedback</title>
<path fill="none" stroke="#965125" d="M647.174,-170.636C690.081,-161.725 751.58,-148.317 755,-144 763.202,-133.648 755.603,-122.505 744.55,-113.282"/>
<ellipse fill="none" stroke="#965125" cx="643.047" cy="-171.49" rx="4.00001" ry="4.00001"/>
<polygon fill="#965125" stroke="#965125" points="744.494,-113.241 739.198,-103.638 740.495,-110.239 736.497,-107.237 736.497,-107.237 736.497,-107.237 740.495,-110.239 733.795,-110.836 744.494,-113.241 744.494,-113.241"/>
</g>
<!-- Ping -->
<g id="node18" class="node"><title>Ping</title>
<ellipse fill="none" stroke="black" cx="400" cy="-92" rx="28.3955" ry="18"/>
<text text-anchor="middle" x="400" y="-88.3" font-family="Times,serif" font-size="14.00">Ping</text>
</g>
<!-- Article&#45;&gt;Ping -->
<g id="edge4" class="edge"><title>Article&#45;&gt;Ping</title>
<path fill="none" stroke="#cab020" d="M570.719,-164.879C536.633,-151.15 483.606,-129.561 438,-110 435.949,-109.12 433.84,-108.206 431.717,-107.277"/>
<ellipse fill="none" stroke="#cab020" cx="574.827" cy="-166.532" rx="4.00001" ry="4.00001"/>
<polygon fill="#cab020" stroke="#cab020" points="431.601,-107.226 424.273,-99.0674 427.028,-105.205 422.454,-103.183 422.454,-103.183 422.454,-103.183 427.028,-105.205 420.635,-107.299 431.601,-107.226 431.601,-107.226"/>
</g>
<!-- Resource -->
<g id="node23" class="node"><title>Resource</title>
<ellipse fill="none" stroke="black" cx="492" cy="-92" rx="45.244" ry="18"/>
<text text-anchor="middle" x="492" y="-88.3" font-family="Times,serif" font-size="14.00">Resource</text>
</g>
<!-- Article&#45;&gt;Resource -->
<g id="edge10" class="edge"><title>Article&#45;&gt;Resource</title>
<path fill="none" stroke="#0581f9" d="M580.272,-159.591C562.439,-146.138 538.691,-128.223 520.32,-114.364"/>
<ellipse fill="none" stroke="#0581f9" cx="583.726" cy="-162.197" rx="4.00002" ry="4.00002"/>
<polygon fill="#0581f9" stroke="#0581f9" points="520.281,-114.335 515.008,-104.72 516.289,-111.324 512.298,-108.312 512.298,-108.312 512.298,-108.312 516.289,-111.324 509.588,-111.905 520.281,-114.335 520.281,-114.335"/>
</g>
<!-- Tag -->
<g id="node26" class="node"><title>Tag</title>
<ellipse fill="none" stroke="black" cx="582" cy="-92" rx="27" ry="18"/>
<text text-anchor="middle" x="582" y="-88.3" font-family="Times,serif" font-size="14.00">Tag</text>
</g>
<!-- Article&#45;&gt;Tag -->
<g id="edge24" class="edge"><title>Article&#45;&gt;Tag</title>
<path fill="none" stroke="#9b66ed" d="M597.411,-152.197C596.576,-149.435 595.758,-146.665 595,-144 592.776,-136.178 590.527,-127.631 588.539,-119.808"/>
<polygon fill="#9b66ed" stroke="#9b66ed" points="597.479,-152.415 596.142,-163.299 598.96,-157.191 600.44,-161.967 600.44,-161.967 600.44,-161.967 598.96,-157.191 604.739,-160.634 597.479,-152.415 597.479,-152.415"/>
<polygon fill="#9b66ed" stroke="#9b66ed" points="588.528,-119.764 590.466,-108.97 587.314,-114.913 586.101,-110.063 586.101,-110.063 586.101,-110.063 587.314,-114.913 581.735,-111.155 588.528,-119.764 588.528,-119.764"/>
</g>
<!-- Trackback -->
<g id="node29" class="node"><title>Trackback</title>
<ellipse fill="none" stroke="black" cx="793" cy="-18" rx="50.0684" ry="18"/>
<text text-anchor="middle" x="793" y="-14.3" font-family="Times,serif" font-size="14.00">Trackback</text>
</g>
<!-- Article&#45;&gt;Trackback -->
<g id="edge6" class="edge"><title>Article&#45;&gt;Trackback</title>
<path fill="none" stroke="#568564" d="M647.14,-170.51C661.33,-167.676 677.341,-164.585 692,-162 743.38,-152.939 758.627,-160.86 808,-144 821.931,-139.243 823.205,-133.136 837,-128 873.189,-114.526 897.687,-140.001 922,-110 932.074,-97.5695 930.82,-87.3492 922,-74 905.624,-49.2151 875.553,-35.562 848.562,-28.0597"/>
<ellipse fill="none" stroke="#568564" cx="642.941" cy="-171.354" rx="4.00001" ry="4.00001"/>
<polygon fill="#568564" stroke="#568564" points="848.478,-28.0383 839.902,-21.2046 843.634,-26.8016 838.789,-25.5648 838.789,-25.5648 838.789,-25.5648 843.634,-26.8016 837.676,-29.925 848.478,-28.0383 848.478,-28.0383"/>
</g>
<!-- Article&#45;&gt;Trackback -->
<g id="edge20" class="edge"><title>Article&#45;&gt;Trackback</title>
<path fill="none" stroke="#fa39ee" d="M647.288,-170.828C695.446,-161.211 768.819,-146.259 771,-144 784.134,-130.401 789.545,-78.8673 791.686,-46.3661"/>
<ellipse fill="none" stroke="#fa39ee" cx="643.125" cy="-171.658" rx="4.00001" ry="4.00001"/>
<polygon fill="#fa39ee" stroke="#fa39ee" points="791.699,-46.1383 796.785,-36.423 791.996,-41.1471 792.293,-36.1559 792.293,-36.1559 792.293,-36.1559 791.996,-41.1471 787.801,-35.8888 791.699,-46.1383 791.699,-46.1383"/>
<text text-anchor="middle" x="852.5" y="-88.3" font-family="Times,serif" font-size="14.00">published_trackbacks</text>
</g>
<!-- Trigger -->
<g id="node30" class="node"><title>Trigger</title>
<ellipse fill="none" stroke="black" cx="1070" cy="-92" rx="38.4949" ry="18"/>
<text text-anchor="middle" x="1070" y="-88.3" font-family="Times,serif" font-size="14.00">Trigger</text>
</g>
<!-- Article&#45;&gt;Trigger -->
<g id="edge2" class="edge"><title>Article&#45;&gt;Trigger</title>
<path fill="none" stroke="#9ca1a5" d="M646.737,-170.348C661.013,-167.476 677.181,-164.401 692,-162 754.797,-151.826 771.295,-154.729 834,-144 901.748,-132.408 979.528,-114.743 1026.7,-103.54"/>
<ellipse fill="none" stroke="#9ca1a5" cx="642.494" cy="-171.212" rx="4.00001" ry="4.00001"/>
<polygon fill="#9ca1a5" stroke="#9ca1a5" points="1026.84,-103.506 1037.61,-105.56 1031.7,-102.344 1036.57,-101.183 1036.57,-101.183 1036.57,-101.183 1031.7,-102.344 1035.52,-96.8064 1026.84,-103.506 1026.84,-103.506"/>
</g>
<!-- Blog -->
<g id="node4" class="node"><title>Blog</title>
<ellipse fill="none" stroke="black" cx="984" cy="-363" rx="29.3722" ry="18"/>
<text text-anchor="middle" x="984" y="-359.3" font-family="Times,serif" font-size="14.00">Blog</text>
</g>
<!-- BlogSweeper -->
<g id="node5" class="node"><title>BlogSweeper</title>
<polygon fill="none" stroke="black" points="1250.25,-272 1155.75,-272 1155.75,-236 1250.25,-236 1250.25,-272"/>
<text text-anchor="middle" x="1203" y="-250.3" font-family="Times,serif" font-size="14.00">BlogSweeper</text>
</g>
<!-- Category&#45;&gt;Categorization -->
<g id="edge32" class="edge"><title>Category&#45;&gt;Categorization</title>
<path fill="none" stroke="#6ba18a" d="M72.5805,-70.7368C85.2092,-61.4586 100.201,-50.4441 113.1,-40.9675"/>
<ellipse fill="none" stroke="#6ba18a" cx="69.0068" cy="-73.3623" rx="4.00002" ry="4.00002"/>
<polygon fill="#6ba18a" stroke="#6ba18a" points="113.169,-40.9167 123.892,-38.6224 117.198,-37.9563 121.228,-34.9959 121.228,-34.9959 121.228,-34.9959 117.198,-37.9563 118.563,-31.3694 113.169,-40.9167 113.169,-40.9167"/>
</g>
<!-- Category&#45;&gt;Category -->
<g id="edge30" class="edge"><title>Category&#45;&gt;Category</title>
<path fill="none" stroke="#8534c0" d="M95.3549,-98.1314C102.895,-97.1815 108,-95.1377 108,-92 108,-89.1238 103.71,-87.1667 97.1877,-86.1289"/>
<ellipse fill="none" stroke="#8534c0" cx="91.0919" cy="-98.4336" rx="4" ry="4"/>
<polygon fill="#8534c0" stroke="#8534c0" points="97.0669,-86.1189 87.4779,-80.7991 92.0844,-85.7011 87.1019,-85.2834 87.1019,-85.2834 87.1019,-85.2834 92.0844,-85.7011 86.7259,-89.7676 97.0669,-86.1189 97.0669,-86.1189"/>
<text text-anchor="middle" x="132" y="-88.3" font-family="Times,serif" font-size="14.00">children</text>
</g>
<!-- ConfigManager -->
<g id="node9" class="node"><title>ConfigManager</title>
<polygon fill="none" stroke="black" stroke-dasharray="1,5" points="1478,-381 1370,-381 1370,-345 1478,-345 1478,-381"/>
<text text-anchor="middle" x="1424" y="-359.3" font-family="Times,serif" font-size="14.00">ConfigManager</text>
</g>
<!-- Content -->
<g id="node10" class="node"><title>Content</title>
<ellipse fill="none" stroke="black" cx="873" cy="-363" rx="39.9464" ry="18"/>
<text text-anchor="middle" x="873" y="-359.3" font-family="Times,serif" font-size="14.00">Content</text>
</g>
<!-- Content&#45;&gt;Article -->
<g id="edge26" class="edge"><title>Content&#45;&gt;Article</title>
<path fill="none" stroke="black" d="M857.253,-346.025C848.298,-337.978 836.414,-328.909 824,-324 784.149,-308.242 663.945,-334.565 632,-306 601.432,-278.666 601.466,-225.559 603.837,-198.204"/>
</g>
<!-- Content&#45;&gt;Feedback -->
<g id="edge48" class="edge"><title>Content&#45;&gt;Feedback</title>
<path fill="none" stroke="black" d="M872.36,-344.82C870.21,-308.027 860.838,-220.23 820,-162 801.032,-134.954 767.736,-116.168 742.92,-105.102"/>
</g>
<!-- Notification -->
<g id="node14" class="node"><title>Notification</title>
<ellipse fill="none" stroke="black" cx="756" cy="-180" rx="55.3682" ry="18"/>
<text text-anchor="middle" x="756" y="-176.3" font-family="Times,serif" font-size="14.00">Notification</text>
</g>
<!-- Content&#45;&gt;Notification -->
<g id="edge36" class="edge"><title>Content&#45;&gt;Notification</title>
<path fill="none" stroke="#474b3e" d="M857.93,-338.687C835.941,-304.67 795.212,-241.662 772.462,-206.466"/>
<ellipse fill="none" stroke="#474b3e" cx="860.239" cy="-342.259" rx="4.00002" ry="4.00002"/>
<polygon fill="#474b3e" stroke="#474b3e" points="772.248,-206.136 770.599,-195.295 769.534,-201.937 766.819,-197.738 766.819,-197.738 766.819,-197.738 769.534,-201.937 763.04,-200.181 772.248,-206.136 772.248,-206.136"/>
</g>
<!-- Page -->
<g id="node16" class="node"><title>Page</title>
<ellipse fill="none" stroke="black" cx="930" cy="-254" rx="28.3955" ry="18"/>
<text text-anchor="middle" x="930" y="-250.3" font-family="Times,serif" font-size="14.00">Page</text>
</g>
<!-- Content&#45;&gt;Page -->
<g id="edge52" class="edge"><title>Content&#45;&gt;Page</title>
<path fill="none" stroke="black" d="M881.906,-345.281C892.677,-325.062 910.685,-291.258 921.343,-271.251"/>
</g>
<!-- Redirect -->
<g id="node21" class="node"><title>Redirect</title>
<ellipse fill="none" stroke="black" cx="1057" cy="-254" rx="42.3701" ry="18"/>
<text text-anchor="middle" x="1057" y="-250.3" font-family="Times,serif" font-size="14.00">Redirect</text>
</g>
<!-- Content&#45;&gt;Redirect -->
<g id="edge42" class="edge"><title>Content&#45;&gt;Redirect</title>
<path fill="none" stroke="#d94114" d="M905.884,-343.424C918.248,-336.83 932.566,-329.65 946,-324 969.709,-314.029 978.776,-318.947 1001,-306 1013.55,-298.688 1025.7,-288.19 1035.45,-278.617"/>
<polygon fill="#d94114" stroke="#d94114" points="905.648,-343.552 894.712,-344.361 901.252,-345.935 896.856,-348.318 896.856,-348.318 896.856,-348.318 901.252,-345.935 899.001,-352.274 905.648,-343.552 905.648,-343.552"/>
<polygon fill="#d94114" stroke="#d94114" points="1035.72,-278.349 1045.93,-274.37 1039.22,-274.783 1042.72,-271.216 1042.72,-271.216 1042.72,-271.216 1039.22,-274.783 1039.51,-268.063 1035.72,-278.349 1035.72,-278.349"/>
</g>
<!-- Redirection -->
<g id="node22" class="node"><title>Redirection</title>
<ellipse fill="none" stroke="black" cx="1011" cy="-180" rx="53.4184" ry="18"/>
<text text-anchor="middle" x="1011" y="-176.3" font-family="Times,serif" font-size="14.00">Redirection</text>
</g>
<!-- Content&#45;&gt;Redirection -->
<g id="edge40" class="edge"><title>Content&#45;&gt;Redirection</title>
<path fill="none" stroke="#71b490" d="M898.58,-341.895C918.995,-324.893 947.336,-299.041 967,-272 981.523,-252.03 993.374,-226.52 1001.1,-207.594"/>
<ellipse fill="none" stroke="#71b490" cx="895.342" cy="-344.555" rx="4.00002" ry="4.00002"/>
<polygon fill="#71b490" stroke="#71b490" points="1001.18,-207.396 1009.05,-199.754 1003.02,-202.747 1004.86,-198.098 1004.86,-198.098 1004.86,-198.098 1003.02,-202.747 1000.68,-196.442 1001.18,-207.396 1001.18,-207.396"/>
</g>
<!-- Content&#45;&gt;Trigger -->
<g id="edge44" class="edge"><title>Content&#45;&gt;Trigger</title>
<path fill="none" stroke="#7fe36f" d="M903.216,-344.028C916.061,-336.986 931.418,-329.333 946,-324 1017.02,-298.026 1066,-334.882 1108,-272 1139.88,-224.266 1107.83,-154.742 1086.21,-117.967"/>
<ellipse fill="none" stroke="#7fe36f" cx="899.458" cy="-346.13" rx="4.00002" ry="4.00002"/>
<polygon fill="#7fe36f" stroke="#7fe36f" points="1086.17,-117.905 1084.83,-107.021 1083.58,-113.631 1080.98,-109.356 1080.98,-109.356 1080.98,-109.356 1083.58,-113.631 1077.14,-111.691 1086.17,-117.905 1086.17,-117.905"/>
</g>
<!-- User -->
<g id="node31" class="node"><title>User</title>
<ellipse fill="none" stroke="black" cx="699" cy="-254" rx="28.3955" ry="18"/>
<text text-anchor="middle" x="699" y="-250.3" font-family="Times,serif" font-size="14.00">User</text>
</g>
<!-- Content&#45;&gt;User -->
<g id="edge38" class="edge"><title>Content&#45;&gt;User</title>
<path fill="none" stroke="#72311e" d="M849.533,-339.516C841.938,-333.477 833.109,-327.623 824,-324 785.825,-308.816 667.6,-336.432 640,-306 627.279,-291.974 646.065,-278.052 665.73,-268.307"/>
<polygon fill="#72311e" stroke="#72311e" points="849.613,-339.584 854.338,-349.479 853.429,-342.814 857.245,-346.045 857.245,-346.045 857.245,-346.045 853.429,-342.814 860.153,-342.61 849.613,-339.584 849.613,-339.584"/>
<polygon fill="#72311e" stroke="#72311e" points="665.943,-268.208 676.908,-268.091 670.48,-266.108 675.017,-264.007 675.017,-264.007 675.017,-264.007 670.48,-266.108 673.127,-259.924 665.943,-268.208 665.943,-268.208"/>
<text text-anchor="middle" x="676" y="-294.3" font-family="Times,serif" font-size="14.00">notify_users</text>
</g>
<!-- EmailNotifier -->
<g id="node11" class="node"><title>EmailNotifier</title>
<polygon fill="none" stroke="black" points="1589.25,-272 1494.75,-272 1494.75,-236 1589.25,-236 1589.25,-272"/>
<text text-anchor="middle" x="1542" y="-250.3" font-family="Times,serif" font-size="14.00">EmailNotifier</text>
</g>
<!-- Feedback::States -->
<g id="node12" class="node"><title>Feedback::States</title>
<polygon fill="none" stroke="black" stroke-dasharray="1,5" points="1828,-381 1716,-381 1716,-345 1828,-345 1828,-381"/>
<text text-anchor="middle" x="1772" y="-359.3" font-family="Times,serif" font-size="14.00">Feedback::States</text>
</g>
<!-- Feedback&#45;&gt;Comment -->
<g id="edge34" class="edge"><title>Feedback&#45;&gt;Comment</title>
<path fill="none" stroke="black" d="M694.577,-75.0209C682.314,-63.0892 665.629,-46.8553 653.377,-34.9345"/>
</g>
<!-- Feedback&#45;&gt;Trackback -->
<g id="edge58" class="edge"><title>Feedback&#45;&gt;Trackback</title>
<path fill="none" stroke="black" d="M728.793,-75.3771C742.453,-63.383 761.237,-46.8893 774.959,-34.8411"/>
</g>
<!-- NotificationMailer -->
<g id="node15" class="node"><title>NotificationMailer</title>
<polygon fill="none" stroke="black" points="1990,-272 1868,-272 1868,-236 1990,-236 1990,-272"/>
<text text-anchor="middle" x="1929" y="-250.3" font-family="Times,serif" font-size="14.00">NotificationMailer</text>
</g>
<!-- PageCache -->
<g id="node17" class="node"><title>PageCache</title>
<polygon fill="none" stroke="black" points="2110,-381 2030,-381 2030,-345 2110,-345 2110,-381"/>
<text text-anchor="middle" x="2070" y="-359.3" font-family="Times,serif" font-size="14.00">PageCache</text>
</g>
<!-- PostType -->
<g id="node19" class="node"><title>PostType</title>
<ellipse fill="none" stroke="black" cx="2174" cy="-363" rx="46.2191" ry="18"/>
<text text-anchor="middle" x="2174" y="-359.3" font-family="Times,serif" font-size="14.00">PostType</text>
</g>
<!-- Profile -->
<g id="node20" class="node"><title>Profile</title>
<ellipse fill="none" stroke="black" cx="2270" cy="-254" rx="36.096" ry="18"/>
<text text-anchor="middle" x="2270" y="-250.3" font-family="Times,serif" font-size="14.00">Profile</text>
</g>
<!-- Redirect&#45;&gt;Redirection -->
<g id="edge54" class="edge"><title>Redirect&#45;&gt;Redirection</title>
<path fill="none" stroke="#c9f190" d="M1041.99,-229.509C1037.39,-222.311 1032.31,-214.352 1027.61,-206.998"/>
<ellipse fill="none" stroke="#c9f190" cx="1044.18" cy="-232.93" rx="4.00002" ry="4.00002"/>
<polygon fill="#c9f190" stroke="#c9f190" points="1027.31,-206.536 1025.72,-195.686 1024.62,-202.322 1021.93,-198.109 1021.93,-198.109 1021.93,-198.109 1024.62,-202.322 1018.14,-200.531 1027.31,-206.536 1027.31,-206.536"/>
</g>
<!-- Right -->
<g id="node24" class="node"><title>Right</title>
<ellipse fill="none" stroke="black" cx="2270" cy="-363" rx="31.2735" ry="18"/>
<text text-anchor="middle" x="2270" y="-359.3" font-family="Times,serif" font-size="14.00">Right</text>
</g>
<!-- Right&#45;&gt;Profile -->
<g id="edge56" class="edge"><title>Right&#45;&gt;Profile</title>
<path fill="none" stroke="#aa7ab9" d="M2270,-334.611C2270,-318.613 2270,-298.489 2270,-282.476"/>
<polygon fill="#aa7ab9" stroke="#aa7ab9" points="2270,-334.809 2265.5,-344.809 2270,-339.809 2270,-344.809 2270,-344.809 2270,-344.809 2270,-339.809 2274.5,-344.809 2270,-334.809 2270,-334.809"/>
<polygon fill="#aa7ab9" stroke="#aa7ab9" points="2270,-282.149 2274.5,-272.149 2270,-277.149 2270,-272.149 2270,-272.149 2270,-272.149 2270,-277.149 2265.5,-272.149 2270,-282.149 2270,-282.149"/>
</g>
<!-- Sidebar -->
<g id="node25" class="node"><title>Sidebar</title>
<ellipse fill="none" stroke="black" cx="2359" cy="-363" rx="39.4691" ry="18"/>
<text text-anchor="middle" x="2359" y="-359.3" font-family="Times,serif" font-size="14.00">Sidebar</text>
</g>
<!-- TextFilter -->
<g id="node27" class="node"><title>TextFilter</title>
<ellipse fill="none" stroke="black" cx="2464" cy="-363" rx="47.169" ry="18"/>
<text text-anchor="middle" x="2464" y="-359.3" font-family="Times,serif" font-size="14.00">TextFilter</text>
</g>
<!-- Theme -->
<g id="node28" class="node"><title>Theme</title>
<polygon fill="none" stroke="black" points="2585,-381 2529,-381 2529,-345 2585,-345 2585,-381"/>
<text text-anchor="middle" x="2557" y="-359.3" font-family="Times,serif" font-size="14.00">Theme</text>
</g>
<!-- User&#45;&gt;Article -->
<g id="edge64" class="edge"><title>User&#45;&gt;Article</title>
<path fill="none" stroke="#b9be3a" d="M675.093,-234.491C662.105,-224.436 646.011,-211.976 632.624,-201.612"/>
<ellipse fill="none" stroke="#b9be3a" cx="678.345" cy="-237.009" rx="4.00002" ry="4.00002"/>
<polygon fill="#b9be3a" stroke="#b9be3a" points="632.598,-201.592 627.445,-191.912 628.644,-198.531 624.691,-195.47 624.691,-195.47 624.691,-195.47 628.644,-198.531 621.936,-199.028 632.598,-201.592 632.598,-201.592"/>
</g>
<!-- User&#45;&gt;Content -->
<g id="edge62" class="edge"><title>User&#45;&gt;Content</title>
<path fill="none" stroke="#23609f" d="M711.668,-280.522C717.537,-289.885 725.369,-299.719 735,-306 768.804,-328.043 787.311,-307.192 824,-324 832.582,-327.932 841.034,-333.628 848.438,-339.42"/>
<polygon fill="#23609f" stroke="#23609f" points="711.645,-280.481 710.545,-269.571 709.146,-276.15 706.648,-271.82 706.648,-271.82 706.648,-271.82 709.146,-276.15 702.75,-274.068 711.645,-280.481 711.645,-280.481"/>
<polygon fill="#23609f" stroke="#23609f" points="848.886,-339.79 853.726,-349.63 852.739,-342.976 856.593,-346.161 856.593,-346.161 856.593,-346.161 852.739,-342.976 859.46,-342.693 848.886,-339.79 848.886,-339.79"/>
<text text-anchor="middle" x="780" y="-294.3" font-family="Times,serif" font-size="14.00">notify_contents</text>
</g>
<!-- User&#45;&gt;Notification -->
<g id="edge60" class="edge"><title>User&#45;&gt;Notification</title>
<path fill="none" stroke="#8fd77a" d="M716.432,-230.981C722.815,-222.918 730.074,-213.748 736.617,-205.483"/>
<ellipse fill="none" stroke="#8fd77a" cx="713.851" cy="-234.241" rx="4.00002" ry="4.00002"/>
<polygon fill="#8fd77a" stroke="#8fd77a" points="736.656,-205.435 746.391,-200.388 739.759,-201.515 742.863,-197.595 742.863,-197.595 742.863,-197.595 739.759,-201.515 739.334,-194.801 736.656,-205.435 736.656,-205.435"/>
</g>
<!-- WebNotifier -->
<g id="node32" class="node"><title>WebNotifier</title>
<polygon fill="none" stroke="black" points="1696.25,-272 1607.75,-272 1607.75,-236 1696.25,-236 1696.25,-272"/>
<text text-anchor="middle" x="1652" y="-250.3" font-family="Times,serif" font-size="14.00">WebNotifier</text>
</g>
<!-- ActionController::Caching::Sweeper -->
<g id="node46" class="node"><title>ActionController::Caching::Sweeper</title>
<ellipse fill="none" stroke="black" cx="1203" cy="-363" rx="148.256" ry="18"/>
<text text-anchor="middle" x="1203" y="-359.3" font-family="Times,serif" font-size="14.00">ActionController::Caching::Sweeper</text>
</g>
<!-- ActionController::Caching::Sweeper&#45;&gt;BlogSweeper -->
<g id="edge28" class="edge"><title>ActionController::Caching::Sweeper&#45;&gt;BlogSweeper</title>
<path fill="none" stroke="black" d="M1203,-344.809C1203,-324.841 1203,-292.098 1203,-272.149"/>
</g>
<!-- ActiveRecord::Observer -->
<g id="node56" class="node"><title>ActiveRecord::Observer</title>
<ellipse fill="none" stroke="black" cx="1597" cy="-363" rx="100.611" ry="18"/>
<text text-anchor="middle" x="1597" y="-359.3" font-family="Times,serif" font-size="14.00">ActiveRecord::Observer</text>
</g>
<!-- ActiveRecord::Observer&#45;&gt;EmailNotifier -->
<g id="edge46" class="edge"><title>ActiveRecord::Observer&#45;&gt;EmailNotifier</title>
<path fill="none" stroke="black" d="M1588.16,-344.809C1577.9,-324.841 1561.07,-292.098 1550.81,-272.149"/>
</g>
<!-- ActiveRecord::Observer&#45;&gt;WebNotifier -->
<g id="edge66" class="edge"><title>ActiveRecord::Observer&#45;&gt;WebNotifier</title>
<path fill="none" stroke="black" d="M1605.84,-344.809C1616.1,-324.841 1632.93,-292.098 1643.19,-272.149"/>
</g>
<!-- ActionMailer::Base -->
<g id="node59" class="node"><title>ActionMailer::Base</title>
<ellipse fill="none" stroke="black" cx="1929" cy="-363" rx="83.2892" ry="18"/>
<text text-anchor="middle" x="1929" y="-359.3" font-family="Times,serif" font-size="14.00">ActionMailer::Base</text>
</g>
<!-- ActionMailer::Base&#45;&gt;NotificationMailer -->
<g id="edge50" class="edge"><title>ActionMailer::Base&#45;&gt;NotificationMailer</title>
<path fill="none" stroke="black" d="M1929,-344.809C1929,-324.841 1929,-292.098 1929,-272.149"/>
</g>
</g>
</svg>
